<?xml version="1.0" encoding="utf-8"?>
<!-- Generator: Adobe Illustrator 15.0.0, SVG Export Plug-In . SVG Version: 6.00 Build 0)  -->
<!DOCTYPE svg PUBLIC "-//W3C//DTD SVG 1.1//EN" "http://www.w3.org/Graphics/SVG/1.1/DTD/svg11.dtd">
<svg version="1.1" id="Layer_1" xmlns="http://www.w3.org/2000/svg" xmlns:xlink="http://www.w3.org/1999/xlink" x="0px" y="0px"
	 width="150px" height="59px" viewBox="0 0 150 59" enable-background="new 0 0 150 59" xml:space="preserve">
<g>
	<path fill="#FFFFFF" d="M22.856,32.081H2.251V1.647h6.018v24.72h14.587V32.081z"/>
	<path fill="#FFFFFF" d="M56.212,16.846c0,2.184-0.424,4.241-1.274,6.169c-0.85,1.93-2.01,3.605-3.48,5.028
		c-1.471,1.422-3.184,2.546-5.136,3.37c-1.954,0.825-4.033,1.237-6.239,1.237c-2.208,0-4.293-0.412-6.258-1.237
		c-1.966-0.824-3.684-1.948-5.156-3.37c-1.47-1.423-2.63-3.092-3.48-5.009c-0.85-1.917-1.273-3.98-1.273-6.189
		c0-2.21,0.424-4.279,1.273-6.208c0.85-1.93,2.01-3.606,3.48-5.027c1.472-1.422,3.19-2.54,5.156-3.353
		c1.965-0.813,4.051-1.219,6.258-1.219c2.206,0,4.286,0.407,6.239,1.219c1.952,0.813,3.665,1.937,5.136,3.371
		c1.471,1.434,2.63,3.111,3.48,5.027C55.788,12.573,56.212,14.636,56.212,16.846z M50.309,16.846c0-1.396-0.267-2.711-0.802-3.943
		c-0.535-1.231-1.266-2.31-2.194-3.236c-0.928-0.927-2.016-1.664-3.262-2.21c-1.246-0.545-2.569-0.818-3.968-0.818
		c-1.425,0-2.761,0.273-4.008,0.818c-1.246,0.547-2.333,1.283-3.261,2.21c-0.929,0.927-1.661,2.005-2.194,3.236
		c-0.535,1.232-0.801,2.546-0.801,3.943c0,1.37,0.267,2.679,0.801,3.923c0.534,1.244,1.266,2.329,2.194,3.256
		c0.928,0.927,2.016,1.663,3.261,2.209c1.247,0.545,2.583,0.818,4.008,0.818c1.399,0,2.723-0.273,3.968-0.818
		c1.246-0.546,2.334-1.283,3.262-2.209c0.928-0.927,1.659-2.012,2.194-3.256C50.042,19.525,50.309,18.216,50.309,16.846z"/>
	<path fill="#FFFFFF" d="M92.769,16.846c0,2.184-0.425,4.241-1.275,6.169c-0.85,1.93-2.009,3.605-3.481,5.028
		c-1.47,1.422-3.181,2.546-5.134,3.37c-1.954,0.825-4.034,1.237-6.239,1.237c-2.207,0-4.292-0.412-6.258-1.237
		c-1.966-0.824-3.684-1.948-5.155-3.37c-1.471-1.423-2.631-3.092-3.481-5.009c-0.85-1.917-1.275-3.98-1.275-6.189
		c0-2.21,0.425-4.279,1.275-6.208s2.01-3.606,3.481-5.027c1.471-1.422,3.189-2.54,5.155-3.353c1.966-0.813,4.051-1.219,6.258-1.219
		c2.205,0,4.285,0.407,6.239,1.219c1.953,0.813,3.664,1.937,5.134,3.371c1.473,1.434,2.632,3.111,3.481,5.027
		C92.344,12.573,92.769,14.636,92.769,16.846z M86.865,16.846c0-1.396-0.268-2.711-0.801-3.943c-0.535-1.231-1.268-2.31-2.194-3.236
		c-0.93-0.927-2.018-1.664-3.265-2.21c-1.245-0.545-2.567-0.818-3.967-0.818c-1.425,0-2.761,0.273-4.007,0.818
		c-1.247,0.547-2.334,1.283-3.262,2.21c-0.929,0.927-1.66,2.005-2.195,3.236c-0.535,1.232-0.801,2.546-0.801,3.943
		c0,1.37,0.267,2.679,0.801,3.923s1.266,2.329,2.195,3.256c0.928,0.927,2.015,1.663,3.262,2.209
		c1.246,0.545,2.582,0.818,4.007,0.818c1.399,0,2.722-0.273,3.967-0.818c1.247-0.546,2.335-1.283,3.265-2.209
		c0.927-0.927,1.659-2.012,2.194-3.256C86.598,19.525,86.865,18.216,86.865,16.846z"/>
	<path fill="#FFFFFF" d="M123.953,32.081h-7.693l-12.188-13.483v13.483h-5.902V1.61h5.902v13.598L116.527,1.61h7.007l-13.749,14.968
		L123.953,32.081z"/>
	<path fill="#FFFFFF" d="M147.75,24.083c0,1.142-0.247,2.227-0.743,3.256c-0.495,1.028-1.188,1.936-2.076,2.722
		c-0.89,0.787-1.943,1.416-3.161,1.886c-1.22,0.47-2.564,0.704-4.037,0.704c-1.321,0-2.508-0.076-3.563-0.228
		c-1.054-0.153-2.043-0.395-2.97-0.725c-0.928-0.329-1.816-0.755-2.666-1.276c-0.852-0.519-1.732-1.147-2.646-1.885l4.188-4.228
		c1.22,1.017,2.412,1.733,3.581,2.153c1.167,0.419,2.438,0.629,3.808,0.629c0.559,0,1.087-0.083,1.581-0.248
		c0.495-0.165,0.928-0.386,1.296-0.667c0.367-0.279,0.659-0.609,0.876-0.99c0.215-0.381,0.323-0.799,0.323-1.256
		c0-0.483-0.09-0.915-0.266-1.296c-0.18-0.38-0.496-0.749-0.954-1.104c-0.456-0.355-1.091-0.717-1.904-1.085
		c-0.813-0.368-1.853-0.781-3.122-1.238c-1.118-0.405-2.191-0.869-3.219-1.389c-1.027-0.521-1.931-1.149-2.705-1.886
		c-0.773-0.736-1.396-1.6-1.865-2.59c-0.471-0.991-0.704-2.158-0.704-3.504c0-1.295,0.259-2.488,0.78-3.58
		c0.521-1.092,1.231-2.024,2.133-2.8c0.9-0.774,1.955-1.377,3.162-1.81C134.082,1.216,135.384,1,136.78,1
		c2.336,0,4.303,0.305,5.904,0.915c1.598,0.609,3.021,1.499,4.267,2.666l-4.115,4.152c-0.762-0.736-1.612-1.301-2.552-1.695
		c-0.939-0.393-2.045-0.591-3.313-0.591c-0.584,0-1.124,0.089-1.618,0.268c-0.496,0.178-0.921,0.412-1.276,0.704
		c-0.357,0.292-0.642,0.635-0.856,1.028c-0.216,0.394-0.324,0.806-0.324,1.237c0,0.483,0.101,0.921,0.304,1.314
		c0.203,0.394,0.546,0.774,1.028,1.142c0.482,0.369,1.125,0.737,1.924,1.105c0.799,0.369,1.796,0.769,2.991,1.2
		c1.523,0.532,2.829,1.117,3.922,1.751c1.091,0.635,1.982,1.333,2.667,2.095c0.687,0.763,1.193,1.62,1.523,2.571
		C147.584,21.815,147.75,22.889,147.75,24.083z"/>
</g>
<g>
	<path fill="#FFFFFF" d="M8.561,48.51c-0.221-0.304-0.521-0.554-0.897-0.747c-0.378-0.194-0.803-0.291-1.274-0.291
		c-0.253,0-0.507,0.034-0.764,0.102c-0.256,0.069-0.491,0.18-0.7,0.332c-0.21,0.151-0.381,0.341-0.512,0.565
		s-0.197,0.496-0.197,0.811c0,0.305,0.061,0.558,0.181,0.762c0.121,0.207,0.283,0.378,0.488,0.521
		c0.205,0.141,0.446,0.262,0.724,0.363c0.278,0.098,0.575,0.201,0.89,0.305c0.377,0.116,0.759,0.247,1.148,0.395
		c0.389,0.146,0.74,0.34,1.055,0.582c0.315,0.241,0.571,0.542,0.771,0.904c0.199,0.363,0.298,0.822,0.298,1.377
		c0,0.577-0.107,1.078-0.323,1.503c-0.214,0.425-0.5,0.777-0.857,1.055c-0.357,0.276-0.768,0.484-1.235,0.621
		c-0.467,0.136-0.947,0.204-1.44,0.204c-0.702,0-1.381-0.136-2.037-0.408c-0.657-0.271-1.199-0.677-1.629-1.212l1.211-1.022
		c0.262,0.387,0.614,0.703,1.054,0.943c0.44,0.242,0.917,0.361,1.432,0.361c0.262,0,0.525-0.035,0.787-0.108
		c0.262-0.073,0.501-0.188,0.716-0.346c0.214-0.158,0.391-0.354,0.528-0.591c0.135-0.236,0.204-0.521,0.204-0.858
		c0-0.336-0.07-0.615-0.212-0.843c-0.143-0.224-0.333-0.416-0.575-0.572c-0.241-0.158-0.522-0.292-0.842-0.402
		c-0.319-0.11-0.659-0.223-1.015-0.338c-0.356-0.104-0.708-0.233-1.054-0.386c-0.346-0.153-0.656-0.346-0.929-0.582
		c-0.272-0.235-0.493-0.527-0.66-0.874c-0.168-0.346-0.252-0.776-0.252-1.289c0-0.557,0.112-1.034,0.338-1.433
		c0.226-0.398,0.519-0.729,0.882-0.991c0.361-0.262,0.771-0.454,1.227-0.574c0.457-0.121,0.916-0.181,1.377-0.181
		c0.65,0,1.258,0.115,1.825,0.345c0.567,0.232,1.022,0.541,1.369,0.93L8.561,48.51z"/>
	<path fill="#FFFFFF" d="M35.184,57.59h-1.73l4.832-11.143h1.416l4.783,11.143h-1.762l-1.133-2.738h-5.288L35.184,57.59z
		 M36.852,53.482h4.17l-2.077-5.225L36.852,53.482z"/>
	<path fill="#FFFFFF" d="M70.227,56.204H75.2v1.386h-6.531V46.447h1.559V56.204z"/>
	<path fill="#FFFFFF" d="M110.227,52.003c0,0.86-0.149,1.65-0.449,2.368c-0.297,0.719-0.711,1.337-1.233,1.855
		c-0.525,0.521-1.147,0.924-1.873,1.214c-0.725,0.288-1.511,0.432-2.359,0.432c-0.85,0-1.634-0.144-2.353-0.432
		c-0.72-0.29-1.342-0.693-1.865-1.214c-0.524-0.519-0.934-1.137-1.227-1.855c-0.296-0.718-0.442-1.508-0.442-2.368
		c0-0.871,0.146-1.665,0.442-2.384c0.293-0.718,0.702-1.332,1.227-1.842c0.523-0.509,1.146-0.904,1.865-1.188
		c0.719-0.283,1.503-0.424,2.353-0.424c0.849,0,1.635,0.141,2.359,0.424c0.726,0.283,1.348,0.679,1.873,1.188
		c0.522,0.51,0.937,1.124,1.233,1.842C110.077,50.338,110.227,51.132,110.227,52.003z M108.544,52.003
		c0-0.608-0.1-1.183-0.299-1.724c-0.2-0.539-0.482-1.015-0.849-1.424c-0.37-0.408-0.813-0.731-1.333-0.968
		c-0.518-0.236-1.103-0.354-1.752-0.354c-0.642,0-1.22,0.118-1.739,0.354c-0.521,0.236-0.96,0.56-1.322,0.968
		c-0.363,0.409-0.643,0.885-0.841,1.424c-0.2,0.541-0.301,1.115-0.301,1.724c0,0.619,0.101,1.202,0.301,1.747
		c0.198,0.545,0.481,1.021,0.848,1.425c0.368,0.403,0.809,0.72,1.323,0.951c0.514,0.23,1.09,0.346,1.731,0.346
		c0.639,0,1.221-0.115,1.744-0.346c0.525-0.231,0.971-0.548,1.341-0.951c0.366-0.403,0.648-0.88,0.849-1.425
		C108.444,53.205,108.544,52.622,108.544,52.003z"/>
	<path fill="#FFFFFF" d="M142.956,55.354h0.033v-8.907h1.557V57.59h-1.966l-5.886-9.096h-0.032v9.096h-1.558V46.447h2.029
		L142.956,55.354z"/>
</g>
</svg>
